<?xml version="1.0" encoding="utf-8"?>
<svg version="1.1" id="Слой_1" xmlns="http://www.w3.org/2000/svg" xmlns:xlink="http://www.w3.org/1999/xlink" x="0px" y="0px"
	 viewBox="0 0 512 512" style="enable-background:new 0 0 512 512;" xml:space="preserve">
<style type="text/css">
	.st0{fill:#712CF9;}
</style>
<path class="st0" d="M286.86,512L69.95,422.37V103.53L287.02,0l154.21,55.92l0.03,4.1L444.55,473L286.86,512z M81.73,414.49
	l206.06,85.14l144.9-35.84l-3.19-399.59L287.64,12.76l-205.9,98.2V414.49z"/>
<rect x="281.43" y="6.38" class="st0" width="11.78" height="499.43"/>
<g>
	<path class="st0" d="M438.67,40.45c1.69-1.69,2.45-4.1,2.04-6.45s-1.94-4.36-4.11-5.37c-33.64-15.86-73.57-8.9-99.83,17.49
		c-24.94,25.1-33.64,64.51-22.01,97.47L145.3,313.04c-9.21-3.29-19.05-4.93-29.31-4.93c-25.17,0-49.58,10.02-66.95,27.49
		c-26.17,26.32-33.54,65.2-18.81,99.08c0.97,2.23,2.98,3.85,5.37,4.29c2.41,0.46,4.86-0.31,6.56-2.04l51.27-51.53
		c3.38-3.41,8.83-3.86,11.65-1l22.13,23.16c3.22,3.25,3.07,8.25-0.32,11.68l-51.08,51.4c-1.69,1.69-2.44,4.1-2.03,6.45
		c0.41,2.35,1.94,4.35,4.1,5.36c12.17,5.74,24.98,8.64,38.05,8.64c23.09,0,45.01-9.28,61.78-26.14c24.94-25.08,33.64-64.5,22-97.45
		l169.46-169.47c9.22,3.29,19.06,4.93,29.33,4.93c25.17,0,49.58-10.02,66.95-27.49c26.17-26.32,33.54-65.2,18.81-99.08
		c-0.97-2.23-2.98-3.85-5.37-4.29c-2.36-0.41-4.85,0.31-6.56,2.04l-51.27,51.53c-3.16,3.17-8.52,3.14-11.76-0.15l-22.01-22.01
		c-3.32-3.33-3.3-8.34-0.01-11.66L438.67,40.45z M376.87,113.87l22.01,22.01c8.8,8.84,23.86,8.88,32.57,0.13l43.03-43.23
		c6.89,25.57-0.23,53-19.44,72.34c-14.64,14.73-35.23,23.16-56.54,23.16c-10.03,0-19.53-1.88-28.24-5.58
		c-2.76-1.19-5.95-0.54-8.06,1.56L185.98,360.49c-2.11,2.11-2.73,5.29-1.57,8.03c11.79,28.05,4.61,64.25-17.08,86.07
		c-19.4,19.5-47.64,26.45-73.21,18.47l43.19-43.47c9.12-9.18,9.27-23.41,0.43-32.28l-22.12-23.16c-8.53-8.59-23.7-8.06-32.57,0.91
		L40.02,418.3c-6.89-25.57,0.23-53,19.44-72.34C74.1,331.23,94.69,322.8,116,322.8c10.03,0,19.53,1.88,28.24,5.58
		c2.75,1.2,5.95,0.54,8.06-1.56L328.53,150.6c2.11-2.11,2.73-5.29,1.57-8.03c-11.79-28.05-4.61-64.26,17.08-86.09
		c19.38-19.5,47.61-26.4,73.16-18.47l-43.47,43.48C367.83,90.55,367.83,104.77,376.87,113.87z"/>
	<path class="st0" d="M451.24,470.63c-3.25,3.26-8.87,3.26-12.14-0.03L291.8,323.74c-2.86-2.83-7.52-2.85-10.38,0.03
		c-2.86,2.86-2.85,7.52,0.01,10.38l147.28,146.83c4.41,4.42,10.25,6.86,16.48,6.86l0,0c6.23,0,12.07-2.44,16.57-6.96l20.99-21.93
		c9.03-9.08,9.03-23.31-0.01-32.4L335.87,279.7c-2.86-2.86-7.52-2.86-10.38,0c-2.86,2.86-2.86,7.52,0,10.38l146.84,146.84
		c3.36,3.38,3.36,8.28-0.1,11.78L451.24,470.63z"/>
	<path class="st0" d="M108.25,66.76L64.19,22.71c-2.86-2.86-7.52-2.86-10.38,0L24.44,52.08c-2.86,2.86-2.86,7.52,0,10.38
		l44.06,44.06c1.42,1.44,3.3,2.16,5.18,2.16s3.76-0.72,5.2-2.14l9.49-9.5l112.29,112.29c1.44,1.44,3.32,2.16,5.2,2.16
		c1.88,0,3.76-0.72,5.2-2.14c2.86-2.86,2.86-7.52,0-10.38L98.74,86.65l9.49-9.49C111.11,74.28,111.11,69.64,108.25,66.76z
		 M73.68,90.95L40,57.27l18.99-18.99l33.67,33.67L73.68,90.95z"/>
</g>
</svg>
