<svg width="45.000000" height="45.000000" viewBox="0 0 45 45" fill="none" xmlns="http://www.w3.org/2000/svg" xmlns:xlink="http://www.w3.org/1999/xlink">
	<desc>
			Created with Pixso.
	</desc>
	<defs>
		<clipPath id="clip9_344">
			<rect id="icons8-мусор 1" width="45.000000" height="45.000004" fill="white" fill-opacity="0"/>
		</clipPath>
	</defs>
	<rect id="icons8-мусор 1" width="45.000000" height="45.000004" fill="#FFFFFF" fill-opacity="0"/>
	<g clip-path="url(#clip9_344)">
		<path id="Vector" d="M18.78 5.62L17.15 7.25L10.63 7.25C9.65 7.25 9 7.9 9 8.88C9 9.86 9.65 10.51 10.63 10.51L13.89 10.51L30.2 10.51L33.46 10.51C34.44 10.51 35.1 9.86 35.1 8.88C35.1 7.9 34.44 7.25 33.46 7.25L26.94 7.25L25.31 5.62L18.78 5.62ZM10.63 13.78L10.63 34.98C10.63 36.78 12.09 38.25 13.89 38.25L30.2 38.25C32 38.25 33.46 36.78 33.46 34.98L33.46 13.78L10.63 13.78ZM17.15 17.04C18.13 17.04 18.78 17.69 18.78 18.67L18.78 33.35C18.78 34.33 18.13 34.98 17.15 34.98C16.17 34.98 15.52 34.33 15.52 33.35L15.52 18.67C15.52 17.69 16.17 17.04 17.15 17.04ZM26.94 17.04C27.92 17.04 28.57 17.69 28.57 18.67L28.57 33.35C28.57 34.33 27.92 34.98 26.94 34.98C25.96 34.98 25.31 34.33 25.31 33.35L25.31 18.67C25.31 17.69 25.96 17.04 26.94 17.04Z" fill="#FFFFFF" fill-opacity="1.000000" fill-rule="nonzero"/>
	</g>
</svg>
