<svg width="40.000000" height="40.000000" viewBox="0 0 40 40" fill="none" xmlns="http://www.w3.org/2000/svg" xmlns:xlink="http://www.w3.org/1999/xlink">
	<desc>
			Created with Pixso.
	</desc>
	<defs>
		<clipPath id="clip2_455">
			<rect id="cooler-svgrepo-com (1)" width="40.000000" height="40.000000" fill="white" fill-opacity="0"/>
		</clipPath>
	</defs>
	<g clip-path="url(#clip2_455)">
		<path id="path" d="M38.7 0.93C38.15 0.46 37.49 0.15 36.78 0.04C36.77 0.04 36.76 0.04 36.74 0.03C36.56 0.01 36.38 0 36.2 0L3.79 0C1.7 0 0 1.7 0 3.79L0 36.2C0 37.34 0.5 38.4 1.38 39.13C1.4 39.15 1.43 39.17 1.46 39.2L1.48 39.21C1.49 39.22 1.5 39.23 1.52 39.24C2.18 39.73 2.96 40 3.79 40L11.1 40C11.44 40 11.72 39.71 11.72 39.37C11.72 39.02 11.44 38.74 11.1 38.74L3.79 38.74C3.24 38.74 2.71 38.57 2.27 38.24L2.23 38.2C2.21 38.19 2.19 38.18 2.17 38.16C1.59 37.68 1.25 36.96 1.25 36.2L1.25 3.79C1.25 2.39 2.39 1.25 3.79 1.25L36.2 1.25C36.32 1.25 36.45 1.26 36.57 1.28C36.58 1.28 36.59 1.28 36.6 1.28C37.07 1.35 37.51 1.56 37.87 1.88C38.42 2.36 38.74 3.06 38.74 3.79L38.74 36.2C38.74 36.54 38.67 36.88 38.54 37.19C38.14 38.13 37.22 38.74 36.2 38.74L13.02 38.74C12.67 38.74 12.39 39.02 12.39 39.37C12.39 39.71 12.67 39.99 13.02 39.99L36.2 39.99C37.73 39.99 39.1 39.09 39.7 37.68C39.89 37.21 40 36.71 40 36.2L40 3.79C40 2.7 39.52 1.66 38.7 0.93Z"   fill-opacity="1.000000" fill-rule="nonzero"/>
		<path id="path" d="M34.88 2.45C33.46 2.45 32.3 3.6 32.3 5.02C32.3 6.45 33.46 7.6 34.88 7.6C36.3 7.6 37.46 6.45 37.46 5.02C37.46 3.6 36.3 2.45 34.88 2.45ZM34.88 6.35C34.15 6.35 33.56 5.75 33.56 5.02C33.56 4.29 34.15 3.7 34.88 3.7C35.61 3.7 36.2 4.29 36.2 5.02C36.2 5.75 35.61 6.35 34.88 6.35Z"   fill-opacity="1.000000" fill-rule="nonzero"/>
		<path id="path" d="M32.3 34.94C32.3 36.36 33.46 37.52 34.88 37.52C36.3 37.52 37.46 36.36 37.46 34.94C37.46 33.52 36.3 32.36 34.88 32.36C33.46 32.36 32.3 33.52 32.3 34.94ZM36.2 34.94C36.2 35.67 35.61 36.26 34.88 36.26C34.15 36.26 33.56 35.67 33.56 34.94C33.56 34.21 34.15 33.62 34.88 33.62C35.61 33.62 36.2 34.21 36.2 34.94Z"   fill-opacity="1.000000" fill-rule="nonzero"/>
		<path id="path" d="M5.23 7.6C6.65 7.6 7.81 6.45 7.81 5.02C7.81 3.6 6.65 2.45 5.23 2.45C3.81 2.45 2.65 3.6 2.65 5.02C2.65 6.45 3.81 7.6 5.23 7.6ZM5.23 3.7C5.96 3.7 6.55 4.29 6.55 5.02C6.55 5.75 5.96 6.35 5.23 6.35C4.5 6.35 3.91 5.75 3.91 5.02C3.91 4.29 4.5 3.7 5.23 3.7Z"   fill-opacity="1.000000" fill-rule="nonzero"/>
		<path id="path" d="M5.23 37.52C6.65 37.52 7.81 36.36 7.81 34.94C7.81 33.52 6.65 32.36 5.23 32.36C3.81 32.36 2.65 33.52 2.65 34.94C2.65 36.36 3.81 37.52 5.23 37.52ZM5.23 33.62C5.96 33.62 6.55 34.21 6.55 34.94C6.55 35.67 5.96 36.27 5.23 36.27C4.5 36.27 3.91 35.67 3.91 34.94C3.91 34.21 4.5 33.62 5.23 33.62Z"   fill-opacity="1.000000" fill-rule="nonzero"/>
		<path id="path" d="M20.14 35.47C28.76 35.47 35.77 28.46 35.77 19.85C35.77 17.36 35.2 14.97 34.07 12.76C33.91 12.45 33.53 12.33 33.22 12.49C32.92 12.65 32.79 13.02 32.95 13.33C33.99 15.36 34.51 17.56 34.51 19.85C34.51 27.77 28.07 34.22 20.14 34.22C12.22 34.22 5.77 27.77 5.77 19.85C5.77 11.92 12.22 5.48 20.14 5.48C24.92 5.48 29.37 7.85 32.06 11.82C32.25 12.11 32.64 12.18 32.93 11.99C33.21 11.79 33.29 11.4 33.1 11.12C30.18 6.8 25.33 4.22 20.14 4.22C11.53 4.22 4.52 11.23 4.52 19.85C4.52 28.46 11.53 35.47 20.14 35.47Z"   fill-opacity="1.000000" fill-rule="nonzero"/>
		<path id="path" d="M29.32 10.49C29.31 10.48 29.3 10.47 29.29 10.46C29.24 10.41 29.19 10.35 29.13 10.3C29.12 10.29 29.11 10.29 29.1 10.28C27.26 8.55 24.93 7.35 22.33 6.91C22.32 6.91 22.31 6.91 22.29 6.91C22.22 6.89 22.14 6.88 22.06 6.87C22.03 6.87 22 6.86 21.97 6.86C21.91 6.85 21.84 6.84 21.78 6.83C21.71 6.82 21.64 6.82 21.58 6.81C21.1 6.76 20.63 6.73 20.14 6.73C16.33 6.73 12.89 8.36 10.49 10.97C10.44 11.02 10.39 11.09 10.34 11.14C10.32 11.16 10.3 11.18 10.29 11.2C10.24 11.25 10.2 11.3 10.16 11.34C10.14 11.37 10.11 11.4 10.09 11.43C10.05 11.48 10.01 11.52 9.98 11.56C9.95 11.6 9.92 11.63 9.89 11.67C9.86 11.71 9.83 11.75 9.8 11.79C9.76 11.83 9.73 11.87 9.7 11.92C9.67 11.95 9.65 11.99 9.62 12.02C9.62 12.03 9.61 12.03 9.61 12.03C8.6 13.4 7.84 14.97 7.41 16.67C7.41 16.69 7.4 16.72 7.39 16.75C7.36 16.87 7.34 16.99 7.31 17.1C7.31 17.12 7.3 17.14 7.3 17.16C7.27 17.3 7.24 17.44 7.22 17.57C7.22 17.59 7.21 17.61 7.21 17.63C7.19 17.75 7.17 17.87 7.16 17.99C7.15 18.02 7.15 18.05 7.14 18.08C7.12 18.21 7.11 18.34 7.09 18.47C7.09 18.48 7.09 18.48 7.09 18.49C7.08 18.63 7.07 18.77 7.06 18.9C7.05 18.94 7.05 18.97 7.05 19C7.04 19.11 7.04 19.22 7.03 19.32C7.03 19.36 7.03 19.4 7.03 19.44C7.03 19.57 7.02 19.71 7.02 19.85C7.02 19.96 7.02 20.07 7.03 20.18C7.03 20.2 7.03 20.23 7.03 20.25C7.03 20.34 7.04 20.43 7.04 20.52C7.04 20.53 7.04 20.55 7.04 20.57C7.05 20.66 7.05 20.76 7.06 20.85C7.06 20.86 7.06 20.87 7.06 20.88C7.07 20.98 7.08 21.08 7.09 21.19C7.15 21.73 7.24 22.27 7.36 22.8C7.36 22.81 7.36 22.82 7.36 22.82C7.39 22.92 7.41 23.02 7.43 23.11C7.44 23.13 7.44 23.15 7.45 23.17C7.47 23.25 7.49 23.34 7.52 23.42C7.53 23.45 7.54 23.49 7.55 23.52C7.57 23.59 7.59 23.66 7.61 23.72C7.62 23.77 7.64 23.82 7.66 23.88C7.67 23.92 7.69 23.97 7.7 24.02C7.73 24.09 7.75 24.16 7.78 24.23C7.79 24.26 7.8 24.29 7.81 24.32C7.84 24.41 7.87 24.49 7.9 24.58C7.91 24.59 7.92 24.6 7.92 24.62C7.96 24.72 8 24.81 8.04 24.91C8.04 24.91 8.04 24.91 8.04 24.92C8.66 26.4 9.55 27.75 10.65 28.89C10.72 28.97 10.79 29.04 10.87 29.12C10.88 29.13 10.89 29.14 10.9 29.15C10.96 29.21 11.02 29.26 11.08 29.32C11.1 29.35 11.13 29.37 11.16 29.4C11.2 29.44 11.24 29.48 11.29 29.52C11.33 29.55 11.36 29.59 11.4 29.62C11.43 29.65 11.47 29.68 11.5 29.71C11.55 29.75 11.59 29.79 11.64 29.83C11.66 29.85 11.68 29.87 11.71 29.89C11.76 29.94 11.82 29.98 11.88 30.03C11.89 30.04 11.89 30.04 11.9 30.05C13.46 31.31 15.32 32.23 17.35 32.67C17.36 32.67 17.36 32.67 17.37 32.67C17.45 32.69 17.53 32.71 17.61 32.72C17.63 32.73 17.65 32.73 17.68 32.73C17.75 32.75 17.82 32.76 17.89 32.77C17.92 32.78 17.96 32.79 18 32.79C18.06 32.8 18.12 32.81 18.18 32.82C18.25 32.83 18.33 32.84 18.4 32.85C18.97 32.93 19.55 32.97 20.14 32.97C21.55 32.97 22.9 32.74 24.17 32.33C24.18 32.33 24.18 32.33 24.19 32.33C24.6 32.19 25 32.04 25.39 31.87C25.39 31.87 25.4 31.87 25.4 31.87C25.8 31.69 26.18 31.5 26.55 31.29C26.56 31.29 26.56 31.29 26.56 31.29C26.57 31.28 26.57 31.28 26.57 31.28C30.56 29.03 33.26 24.75 33.26 19.85C33.26 16.19 31.75 12.87 29.32 10.49ZM21.78 15.49C21.81 15.44 21.84 15.39 21.86 15.33C21.87 15.33 21.87 15.32 21.87 15.31C22.51 14.01 22.86 12.57 22.86 11.1C22.86 10.11 22.71 9.13 22.41 8.2C24.59 8.63 26.63 9.67 28.26 11.2C28.23 13.93 26.87 16.44 24.6 17.97C24.48 17.97 24.36 17.97 24.24 17.97C24.15 17.97 24.06 17.97 23.96 17.97C23.95 17.97 23.94 17.97 23.92 17.97C23.85 17.97 23.78 17.96 23.71 17.96C23.66 17.95 23.61 17.95 23.56 17.95C23.5 17.94 23.44 17.93 23.38 17.93C23.32 17.92 23.25 17.91 23.18 17.91C23.14 17.9 23.09 17.89 23.04 17.89C23.02 17.88 23 17.88 22.98 17.88C22.98 17.87 22.98 17.87 22.97 17.86C22.96 17.85 22.95 17.83 22.94 17.81C22.92 17.78 22.9 17.76 22.88 17.73C22.87 17.71 22.85 17.69 22.84 17.68C22.82 17.65 22.8 17.63 22.78 17.61C22.77 17.59 22.75 17.57 22.74 17.55C22.72 17.53 22.7 17.51 22.68 17.49C22.67 17.47 22.65 17.45 22.63 17.43C22.62 17.41 22.6 17.4 22.59 17.38C22.21 16.98 21.73 16.67 21.2 16.48C21.21 16.46 21.22 16.44 21.23 16.42C21.27 16.37 21.3 16.32 21.33 16.27C21.36 16.22 21.39 16.18 21.41 16.14C21.45 16.08 21.49 16.02 21.52 15.96C21.54 15.93 21.56 15.89 21.58 15.86C21.64 15.77 21.69 15.67 21.74 15.58C21.75 15.55 21.77 15.52 21.78 15.49ZM21.97 21.07C21.95 21.11 21.92 21.15 21.9 21.18C21.89 21.19 21.88 21.21 21.87 21.22C21.86 21.24 21.84 21.26 21.82 21.29C21.79 21.33 21.75 21.37 21.72 21.41C21.69 21.44 21.67 21.46 21.64 21.49C21.46 21.67 21.24 21.83 21.01 21.94C21.01 21.94 21 21.94 21 21.95C20.97 21.96 20.95 21.97 20.92 21.98C20.9 21.99 20.89 22 20.87 22C20.85 22.01 20.83 22.02 20.81 22.03C20.77 22.04 20.73 22.06 20.68 22.07C20.68 22.07 20.68 22.07 20.68 22.07C20.63 22.09 20.59 22.1 20.55 22.11C20.54 22.11 20.53 22.11 20.53 22.11C20.48 22.12 20.44 22.13 20.39 22.14C20.24 22.17 20.08 22.18 19.93 22.17C19.2 22.15 18.53 21.79 18.11 21.21C18.08 21.17 18.05 21.13 18.03 21.09C18 21.04 17.97 21 17.95 20.95C17.94 20.94 17.94 20.93 17.93 20.92C17.56 20.2 17.59 19.32 18.02 18.63C18.04 18.59 18.07 18.55 18.09 18.52C18.1 18.5 18.11 18.49 18.12 18.48C18.13 18.46 18.15 18.43 18.17 18.41C18.47 18.03 18.89 17.74 19.37 17.61C19.39 17.6 19.41 17.6 19.43 17.59C19.45 17.59 19.47 17.58 19.49 17.58C19.52 17.57 19.55 17.57 19.57 17.56C19.59 17.56 19.6 17.55 19.62 17.55C19.76 17.53 19.91 17.52 20.06 17.52C20.79 17.54 21.46 17.91 21.88 18.48C21.91 18.52 21.94 18.57 21.96 18.61C21.99 18.65 22.02 18.7 22.04 18.75C22.44 19.47 22.41 20.36 21.97 21.07ZM20.14 7.98C20.43 7.98 20.72 7.99 21 8.01C21.4 9 21.6 10.03 21.6 11.1C21.6 11.59 21.56 12.07 21.48 12.54C20.92 10.8 19.87 9.27 18.45 8.1C19 8.03 19.57 7.98 20.14 7.98ZM16.8 8.46C19.05 9.87 20.49 12.26 20.67 14.92C20.66 14.93 20.66 14.94 20.66 14.94C20.6 15.05 20.54 15.15 20.48 15.26C20.48 15.27 20.47 15.27 20.47 15.28C20.4 15.39 20.33 15.51 20.26 15.62C20.26 15.62 20.25 15.63 20.25 15.63C20.18 15.74 20.11 15.84 20.04 15.94C20.02 15.97 19.99 16 19.97 16.03C19.92 16.1 19.86 16.17 19.81 16.24C19.8 16.25 19.79 16.26 19.78 16.27C19.69 16.28 19.6 16.29 19.51 16.3C19.5 16.3 19.49 16.3 19.49 16.3C19.45 16.31 19.42 16.31 19.38 16.32C19.36 16.32 19.34 16.33 19.32 16.33C19.29 16.34 19.27 16.34 19.24 16.35C19.2 16.36 19.16 16.37 19.13 16.37C19.12 16.38 19.1 16.38 19.09 16.38C18.57 16.52 18.08 16.77 17.67 17.12C17.66 17.1 17.65 17.08 17.64 17.06C17.62 17 17.59 16.95 17.56 16.9C17.54 16.85 17.52 16.81 17.49 16.76C17.46 16.7 17.43 16.64 17.39 16.58C17.37 16.55 17.35 16.51 17.33 16.47C17.28 16.38 17.22 16.29 17.17 16.2C17.15 16.17 17.13 16.15 17.11 16.12C17.08 16.07 17.05 16.02 17.02 15.97C17.02 15.97 17.01 15.96 17.01 15.96C16.2 14.75 15.13 13.73 13.85 13C13.04 12.53 12.18 12.19 11.28 11.97C12.75 10.32 14.67 9.09 16.8 8.46ZM10.4 13.08C11.4 13.24 12.34 13.57 13.23 14.08C13.65 14.33 14.04 14.6 14.41 14.91C13.75 14.77 13.08 14.7 12.41 14.7C11.32 14.7 10.23 14.89 9.2 15.27C9.52 14.49 9.93 13.76 10.4 13.08ZM8.83 23.44C8.83 23.43 8.83 23.42 8.82 23.41C8.79 23.29 8.75 23.17 8.72 23.05C8.71 23.01 8.69 22.97 8.68 22.93C8.66 22.84 8.64 22.75 8.61 22.65C8.6 22.61 8.59 22.57 8.58 22.53C8.56 22.42 8.53 22.3 8.51 22.19C8.5 22.14 8.49 22.09 8.48 22.04C8.46 21.95 8.45 21.86 8.43 21.77C8.43 21.72 8.42 21.67 8.41 21.62C8.39 21.51 8.38 21.4 8.36 21.29C8.36 21.24 8.35 21.2 8.35 21.15C8.34 21.04 8.33 20.93 8.32 20.82C8.31 20.79 8.31 20.77 8.31 20.74C8.3 20.62 8.29 20.49 8.29 20.36C8.29 20.33 8.29 20.29 8.28 20.25C8.28 20.12 8.28 19.98 8.28 19.85C8.28 19.73 8.28 19.62 8.28 19.5C8.28 19.47 8.29 19.43 8.29 19.4C8.29 19.31 8.29 19.23 8.3 19.15C8.3 19.11 8.3 19.07 8.31 19.03C8.31 18.95 8.32 18.87 8.33 18.78C8.33 18.75 8.33 18.72 8.33 18.69C8.36 18.45 8.39 18.22 8.42 18C8.43 17.97 8.43 17.94 8.44 17.91C8.45 17.82 8.47 17.74 8.48 17.65C8.49 17.62 8.49 17.58 8.5 17.55C8.52 17.46 8.54 17.38 8.56 17.29C8.56 17.26 8.57 17.23 8.57 17.21C8.6 17.09 8.63 16.98 8.66 16.87C8.66 16.87 8.66 16.87 8.66 16.86C9.82 16.27 11.11 15.95 12.41 15.95C13.67 15.95 14.93 16.25 16.06 16.8C16.07 16.81 16.07 16.81 16.08 16.82C16.14 16.93 16.21 17.04 16.27 17.15C16.34 17.26 16.4 17.39 16.47 17.51C16.47 17.51 16.47 17.51 16.47 17.51C16.53 17.63 16.58 17.74 16.63 17.85C16.65 17.89 16.66 17.93 16.68 17.96C16.71 18.04 16.75 18.12 16.78 18.21C16.78 18.22 16.79 18.23 16.79 18.25C16.55 18.73 16.41 19.27 16.41 19.85C16.41 20.07 16.44 20.28 16.47 20.49C16.44 20.49 16.41 20.49 16.37 20.49C16.34 20.49 16.32 20.48 16.29 20.48C15.94 20.46 15.59 20.46 15.24 20.48C15.21 20.48 15.18 20.48 15.15 20.49C15.15 20.49 15.14 20.49 15.14 20.49C13.69 20.58 12.26 21.01 10.99 21.74C10.19 22.21 9.46 22.78 8.83 23.44ZM10.62 26.92C10.12 26.26 9.69 25.53 9.34 24.76C9.98 23.99 10.74 23.34 11.62 22.83C12.04 22.59 12.47 22.38 12.93 22.22C11.74 23.54 10.94 25.16 10.62 26.92ZM18.21 24.21C18.18 24.26 18.15 24.31 18.13 24.36C18.12 24.37 18.12 24.38 18.12 24.38C17.48 25.68 17.13 27.12 17.13 28.59C17.13 29.57 17.28 30.52 17.56 31.43C15.52 30.97 13.61 29.97 12.06 28.52C12.05 28.52 12.04 28.51 12.03 28.5C11.93 28.41 11.84 28.31 11.74 28.22C11.86 25.6 13.21 23.2 15.39 21.73C15.54 21.72 15.69 21.72 15.84 21.72C15.91 21.72 15.98 21.72 16.04 21.73C16.09 21.73 16.14 21.73 16.18 21.73C16.28 21.74 16.37 21.74 16.46 21.75C16.49 21.76 16.52 21.76 16.56 21.76C16.66 21.77 16.76 21.78 16.87 21.8C16.89 21.8 16.91 21.8 16.93 21.81C16.96 21.81 16.98 21.82 17.01 21.82C17.01 21.82 17.01 21.83 17.02 21.83C17.03 21.85 17.04 21.87 17.05 21.89C17.07 21.91 17.09 21.94 17.11 21.96C17.12 21.98 17.14 22 17.15 22.02C17.17 22.04 17.19 22.07 17.21 22.09C17.22 22.11 17.24 22.13 17.25 22.15C17.27 22.17 17.29 22.19 17.31 22.21C17.33 22.23 17.34 22.25 17.36 22.27C17.37 22.28 17.39 22.3 17.4 22.31C17.79 22.72 18.26 23.03 18.79 23.22C18.78 23.24 18.77 23.26 18.76 23.28C18.72 23.33 18.69 23.38 18.66 23.43C18.63 23.47 18.6 23.51 18.58 23.56C18.54 23.62 18.5 23.67 18.47 23.73C18.45 23.77 18.43 23.8 18.41 23.84C18.35 23.93 18.3 24.02 18.25 24.12C18.24 24.15 18.22 24.18 18.21 24.21ZM20.14 31.71C19.75 31.71 19.36 31.69 18.98 31.66C18.59 30.68 18.39 29.65 18.39 28.59C18.39 28.11 18.43 27.63 18.51 27.16C19.08 28.91 20.14 30.46 21.58 31.63C21.11 31.68 20.63 31.71 20.14 31.71ZM25.94 30.2C25.52 30.43 25.09 30.64 24.65 30.82C24.54 30.87 24.42 30.91 24.32 30.95C23.98 31.08 23.64 31.19 23.3 31.29C23.29 31.29 23.29 31.29 23.29 31.29C20.97 29.89 19.51 27.48 19.32 24.78C19.33 24.77 19.33 24.76 19.33 24.75C19.39 24.65 19.45 24.54 19.51 24.44C19.51 24.43 19.52 24.42 19.52 24.42C19.59 24.3 19.66 24.19 19.73 24.08C19.73 24.07 19.74 24.07 19.74 24.06C19.81 23.96 19.88 23.86 19.95 23.76C19.97 23.73 20 23.7 20.02 23.66C20.07 23.59 20.13 23.52 20.18 23.45C20.19 23.44 20.2 23.43 20.21 23.42C20.3 23.42 20.39 23.41 20.49 23.39C20.49 23.39 20.5 23.39 20.5 23.39C20.54 23.39 20.57 23.38 20.61 23.38C20.63 23.37 20.65 23.37 20.67 23.36C20.7 23.36 20.73 23.35 20.75 23.35C20.79 23.34 20.83 23.33 20.86 23.32C20.87 23.32 20.89 23.32 20.9 23.31C21.42 23.18 21.91 22.93 22.32 22.58C22.33 22.6 22.34 22.62 22.35 22.64C22.38 22.69 22.4 22.74 22.43 22.8C22.45 22.84 22.48 22.89 22.5 22.94C22.53 22.99 22.56 23.05 22.59 23.1C22.62 23.15 22.65 23.2 22.68 23.25C22.72 23.33 22.77 23.41 22.82 23.49C22.84 23.52 22.86 23.55 22.88 23.59C22.91 23.63 22.94 23.68 22.97 23.72C22.97 23.73 22.98 23.74 22.98 23.74C23.79 24.95 24.86 25.96 26.14 26.7C27 27.2 27.92 27.55 28.88 27.76C28.04 28.72 27.06 29.54 25.94 30.2ZM29.85 26.66C28.76 26.52 27.73 26.17 26.77 25.61C26.34 25.37 25.95 25.09 25.58 24.78C26.24 24.92 26.91 25 27.58 25C28.8 25 30.01 24.76 31.14 24.3C30.8 25.14 30.37 25.93 29.85 26.66ZM31.29 16.11C32.01 18.21 32.13 20.5 31.61 22.68C30.38 23.38 28.99 23.74 27.58 23.74C26.32 23.74 25.06 23.45 23.93 22.9C23.92 22.89 23.92 22.88 23.91 22.88C23.85 22.77 23.78 22.66 23.72 22.55C23.65 22.43 23.59 22.31 23.52 22.19C23.52 22.19 23.52 22.18 23.52 22.18C23.46 22.07 23.41 21.96 23.36 21.84C23.34 21.81 23.33 21.77 23.31 21.74C23.28 21.65 23.24 21.57 23.21 21.49C23.21 21.48 23.2 21.46 23.2 21.45C23.44 20.97 23.58 20.42 23.58 19.85C23.58 19.63 23.55 19.41 23.52 19.2C23.53 19.2 23.55 19.2 23.57 19.2C23.65 19.21 23.73 19.21 23.81 19.22C23.86 19.22 23.92 19.22 23.97 19.22C24.02 19.23 24.06 19.23 24.1 19.23C24.32 19.23 24.54 19.23 24.76 19.21C24.78 19.21 24.81 19.21 24.84 19.21C24.84 19.21 24.85 19.21 24.85 19.21C26.3 19.11 27.73 18.69 29 17.95C29.86 17.46 30.63 16.84 31.29 16.11ZM30.83 14.7C30.16 15.58 29.34 16.31 28.37 16.87C27.95 17.11 27.52 17.31 27.07 17.48C28.33 16.08 29.15 14.34 29.42 12.46C29.97 13.15 30.44 13.9 30.83 14.7Z"   fill-opacity="1.000000" fill-rule="nonzero"/>
		<path id="path" d="M20 18.29C19.13 18.29 18.43 18.99 18.43 19.85C18.43 20.71 19.13 21.41 20 21.41C20.86 21.41 21.56 20.71 21.56 19.85C21.56 18.99 20.86 18.29 20 18.29ZM20 20.15C19.83 20.15 19.69 20.02 19.69 19.85C19.69 19.68 19.83 19.54 20 19.54C20.16 19.54 20.3 19.68 20.3 19.85C20.3 20.02 20.16 20.15 20 20.15Z"   fill-opacity="1.000000" fill-rule="nonzero"/>
	</g>
</svg>
