<svg width="40.000000" height="40.000000" viewBox="0 0 40 40" fill="none" xmlns="http://www.w3.org/2000/svg">
	<desc>
			Created with Pixso.
	</desc>
	<defs>
		<clipPath id="clip2_90">
			<rect id="processor-svgrepo-com" width="40.000000" height="40.000000" fill="white" fill-opacity="0"/>
		</clipPath>
	</defs>
	<g clip-path="url(#clip2_90)">
		<path id="path" d="M23.75 13.33L16.25 13.33C15.44 13.33 14.75 13.61 14.18 14.18C13.61 14.75 13.33 15.44 13.33 16.25L13.33 23.75C13.33 24.55 13.61 25.24 14.18 25.81C14.75 26.38 15.44 26.66 16.25 26.66L23.75 26.66C24.55 26.66 25.24 26.38 25.81 25.81C26.38 25.24 26.66 24.55 26.66 23.75L26.66 16.25C26.66 15.44 26.38 14.75 25.81 14.18C25.24 13.61 24.55 13.33 23.75 13.33ZM23.33 23.33L16.66 23.33L16.66 16.66L23.33 16.66L23.33 23.33ZM36.66 15C37.77 15 38.33 14.44 38.33 13.33C38.33 12.22 37.77 11.66 36.66 11.66L33.33 11.66L33.33 11.25C33.33 9.98 32.88 8.9 31.98 8.01C31.09 7.11 30.01 6.66 28.75 6.66L28.33 6.66L28.33 3.33C28.33 2.22 27.77 1.66 26.66 1.66C25.55 1.66 25 2.22 25 3.33L25 6.66L21.66 6.66L21.66 3.33C21.66 2.22 21.11 1.66 20 1.66C18.88 1.66 18.33 2.22 18.33 3.33L18.33 6.66L15 6.66L15 3.33C15 2.22 14.44 1.66 13.33 1.66C12.22 1.66 11.66 2.22 11.66 3.33L11.66 6.66L11.25 6.66C9.98 6.66 8.9 7.11 8.01 8.01C7.11 8.9 6.66 9.98 6.66 11.25L6.66 11.66L3.33 11.66C2.22 11.66 1.66 12.22 1.66 13.33C1.66 14.44 2.22 15 3.33 15L6.66 15L6.66 18.33L3.33 18.33C2.22 18.33 1.66 18.88 1.66 20C1.66 21.11 2.22 21.66 3.33 21.66L6.66 21.66L6.66 25L3.33 25C2.22 25 1.66 25.55 1.66 26.66C1.66 27.77 2.22 28.33 3.33 28.33L6.66 28.33L6.66 28.75C6.66 30.01 7.11 31.09 8.01 31.98C8.9 32.88 9.98 33.33 11.25 33.33L11.66 33.33L11.66 36.66C11.66 37.77 12.22 38.33 13.33 38.33C14.44 38.33 15 37.77 15 36.66L15 33.33L18.33 33.33L18.33 36.66C18.33 37.77 18.88 38.33 20 38.33C21.11 38.33 21.66 37.77 21.66 36.66L21.66 33.33L25 33.33L25 36.66C25 37.77 25.55 38.33 26.66 38.33C27.77 38.33 28.33 37.77 28.33 36.66L28.33 33.33L28.75 33.33C30.01 33.33 31.09 32.88 31.98 31.98C32.88 31.09 33.33 30.01 33.33 28.75L33.33 28.33L36.66 28.33C37.77 28.33 38.33 27.77 38.33 26.66C38.33 25.55 37.77 25 36.66 25L33.33 25L33.33 21.66L36.66 21.66C37.77 21.66 38.33 21.11 38.33 20C38.33 18.88 37.77 18.33 36.66 18.33L33.33 18.33L33.33 15L36.66 15ZM30 28.75C29.99 29.58 29.58 29.99 28.75 30L11.25 30C10.41 29.99 10 29.58 9.99 28.75L9.99 11.25C10 10.41 10.41 10 11.25 10L28.75 10C29.58 10 29.99 10.41 30 11.25L30 28.75Z" fill="#FFFFFF" fill-opacity="1.000000" fill-rule="nonzero"/>
	</g>
</svg>
