<svg width="40.000000" height="40.000000" viewBox="0 0 40 40" fill="none" xmlns="http://www.w3.org/2000/svg" xmlns:xlink="http://www.w3.org/1999/xlink">
	<desc>
			Created with Pixso.
	</desc>
	<defs>
		<clipPath id="clip2_133">
			<rect id="motherboard-svgrepo-com" width="40.000000" height="40.000004" fill="white" fill-opacity="0"/>
		</clipPath>
	</defs>
	<g clip-path="url(#clip2_133)">
		<path id="path" d="M39.32 12.63C39.67 12.63 39.95 12.34 39.95 12L39.95 4.43C39.95 3.21 38.96 2.21 37.74 2.21L36.67 2.21L36.67 0.63C36.67 0.28 36.39 0 36.04 0L22.06 0C21.71 0 21.43 0.28 21.43 0.63L21.43 2.21L2.25 2.21C1.03 2.21 0.04 3.21 0.04 4.43L0.04 6.08L0.04 20.06L0.04 24.62L0.04 34.73L0.04 37.78C0.04 39 1.03 40 2.25 40L37.74 40C38.96 40 39.95 39 39.95 37.78L39.95 13.94C39.95 13.6 39.67 13.31 39.32 13.31C38.97 13.31 38.69 13.6 38.69 13.94L38.69 37.78C38.69 38.31 38.26 38.73 37.74 38.73L2.25 38.73C1.73 38.73 1.3 38.31 1.3 37.78L1.3 35.36L2.89 35.36C3.24 35.36 3.52 35.07 3.52 34.73L3.52 24.62C3.52 24.27 3.24 23.99 2.89 23.99L1.3 23.99L1.3 20.69L2.89 20.69C3.24 20.69 3.52 20.41 3.52 20.06L3.52 6.08C3.52 5.73 3.24 5.45 2.89 5.45L1.3 5.45L1.3 4.43C1.3 3.9 1.73 3.48 2.25 3.48L22.06 3.48L36.04 3.48L37.74 3.48C38.26 3.48 38.69 3.9 38.69 4.43L38.69 12C38.69 12.34 38.97 12.63 39.32 12.63ZM2.26 25.25L2.26 34.09L1.3 34.09L1.3 25.25L2.26 25.25ZM2.26 6.71L2.26 19.43L1.3 19.43L1.3 6.71L2.26 6.71ZM35.41 2.21L22.69 2.21L22.69 1.26L35.41 1.26L35.41 2.21Z" fill="#000000" fill-opacity="1.000000" fill-rule="nonzero"/>
		<path id="path" d="M36.67 6.08C36.67 5.73 36.39 5.45 36.04 5.45L22.06 5.45C21.71 5.45 21.43 5.73 21.43 6.08L21.43 20.06C21.43 20.41 21.71 20.69 22.06 20.69L36.04 20.69C36.39 20.69 36.67 20.41 36.67 20.06L36.67 6.08ZM35.41 19.43L22.69 19.43L22.69 6.71L35.41 6.71L35.41 19.43Z" fill="#000000" fill-opacity="1.000000" fill-rule="nonzero"/>
		<path id="path" d="M23.46 15.11C23.46 15.46 23.75 15.74 24.1 15.74L24.92 15.74L24.92 16.57C24.92 16.91 25.21 17.2 25.55 17.2L26.31 17.2L26.31 17.95C26.31 18.3 26.59 18.59 26.94 18.59C27.29 18.59 27.58 18.3 27.58 17.95L27.58 17.2L28.42 17.2L28.42 17.95C28.42 18.3 28.7 18.59 29.05 18.59C29.4 18.59 29.68 18.3 29.68 17.95L29.68 17.2L30.52 17.2L30.52 17.95C30.52 18.3 30.81 18.59 31.15 18.59C31.5 18.59 31.79 18.3 31.79 17.95L31.79 17.2L32.54 17.2C32.89 17.2 33.18 16.91 33.18 16.57L33.18 15.74L34 15.74C34.35 15.74 34.63 15.46 34.63 15.11C34.63 14.76 34.35 14.48 34 14.48L33.18 14.48L33.18 13.63L34 13.63C34.35 13.63 34.63 13.35 34.63 13C34.63 12.65 34.35 12.37 34 12.37L33.18 12.37L33.18 11.53L34 11.53C34.35 11.53 34.63 11.25 34.63 10.9C34.63 10.55 34.35 10.27 34 10.27L33.18 10.27L33.18 9.58C33.18 9.23 32.89 8.94 32.54 8.94L31.79 8.94L31.79 8.05C31.79 7.7 31.5 7.42 31.15 7.42C30.81 7.42 30.52 7.7 30.52 8.05L30.52 8.94L29.68 8.94L29.68 8.05C29.68 7.7 29.4 7.42 29.05 7.42C28.7 7.42 28.42 7.7 28.42 8.05L28.42 8.94L27.58 8.94L27.58 8.05C27.58 7.7 27.29 7.42 26.94 7.42C26.59 7.42 26.31 7.7 26.31 8.05L26.31 8.94L25.55 8.94C25.21 8.94 24.92 9.23 24.92 9.58L24.92 10.27L24.1 10.27C23.75 10.27 23.46 10.55 23.46 10.9C23.46 11.25 23.75 11.53 24.1 11.53L24.92 11.53L24.92 12.37L24.1 12.37C23.75 12.37 23.46 12.65 23.46 13C23.46 13.35 23.75 13.63 24.1 13.63L24.92 13.63L24.92 14.48L24.1 14.48C23.75 14.48 23.46 14.76 23.46 15.11ZM26.19 10.21L31.91 10.21L31.91 15.93L26.19 15.93L26.19 10.21Z" fill="#000000" fill-opacity="1.000000" fill-rule="nonzero"/>
		<path id="path" d="M36.04 28.79C36.39 28.79 36.67 28.51 36.67 28.16L36.67 24.62C36.67 24.27 36.39 23.99 36.04 23.99L34.12 23.99L34.12 23.33C34.12 22.99 33.84 22.7 33.49 22.7C33.14 22.7 32.86 22.99 32.86 23.33L32.86 23.99L18.61 23.99C18.26 23.99 17.98 24.27 17.98 24.62C17.98 24.97 18.26 25.25 18.61 25.25L32.86 25.25L32.86 27.53L13.79 27.53L13.79 25.25L16.67 25.25C17.02 25.25 17.3 24.97 17.3 24.62C17.3 24.27 17.02 23.99 16.67 23.99L13.79 23.99L13.79 23.33C13.79 22.99 13.5 22.7 13.15 22.7C12.81 22.7 12.52 22.99 12.52 23.33L12.52 23.99L10.61 23.99C10.26 23.99 9.98 24.27 9.98 24.62L9.98 28.16C9.98 28.51 10.26 28.79 10.61 28.79L12.52 28.79L12.52 30.56L10.61 30.56C10.26 30.56 9.98 30.84 9.98 31.19L9.98 34.73C9.98 35.07 10.26 35.36 10.61 35.36L12.52 35.36L12.52 35.97C12.52 36.31 12.81 36.6 13.15 36.6C13.5 36.6 13.79 36.31 13.79 35.97L13.79 35.36L28.04 35.36C28.39 35.36 28.67 35.07 28.67 34.73C28.67 34.38 28.39 34.09 28.04 34.09L13.79 34.09L13.79 31.82L32.86 31.82L32.86 34.09L29.98 34.09C29.63 34.09 29.34 34.38 29.34 34.73C29.34 35.07 29.63 35.36 29.98 35.36L32.86 35.36L32.86 35.97C32.86 36.31 33.14 36.6 33.49 36.6C33.84 36.6 34.12 36.31 34.12 35.97L34.12 35.36L36.04 35.36C36.39 35.36 36.67 35.07 36.67 34.73L36.67 31.19C36.67 30.84 36.39 30.56 36.04 30.56L34.12 30.56L34.12 28.79L36.04 28.79ZM34.12 25.25L35.41 25.25L35.41 27.53L34.12 27.53L34.12 25.25ZM12.52 34.09L11.24 34.09L11.24 31.82L12.52 31.82L12.52 34.09ZM12.52 27.53L11.24 27.53L11.24 25.25L12.52 25.25L12.52 27.53ZM32.86 30.56L13.79 30.56L13.79 28.79L32.86 28.79L32.86 30.56ZM34.12 31.82L35.41 31.82L35.41 34.09L34.12 34.09L34.12 31.82Z" fill="#000000" fill-opacity="1.000000" fill-rule="nonzero"/>
		<path id="path" d="M10.9 20.06C10.9 20.41 11.18 20.69 11.53 20.69C11.88 20.69 12.16 20.41 12.16 20.06L12.16 8.77C12.16 8.42 11.88 8.14 11.53 8.14C11.18 8.14 10.9 8.42 10.9 8.77L10.9 20.06Z" fill="#000000" fill-opacity="1.000000" fill-rule="nonzero"/>
		<path id="path" d="M11.53 7.57C11.88 7.57 12.16 7.29 12.16 6.94L12.16 6.08C12.16 5.73 11.88 5.45 11.53 5.45C11.18 5.45 10.9 5.73 10.9 6.08L10.9 6.94C10.9 7.29 11.18 7.57 11.53 7.57Z" fill="#000000" fill-opacity="1.000000" fill-rule="nonzero"/>
		<path id="path" d="M15.96 20.06C15.96 20.41 16.24 20.69 16.59 20.69C16.94 20.69 17.22 20.41 17.22 20.06L17.22 8.77C17.22 8.42 16.94 8.14 16.59 8.14C16.24 8.14 15.96 8.42 15.96 8.77L15.96 20.06Z" fill="#000000" fill-opacity="1.000000" fill-rule="nonzero"/>
		<path id="path" d="M16.59 7.57C16.94 7.57 17.22 7.29 17.22 6.94L17.22 6.08C17.22 5.73 16.94 5.45 16.59 5.45C16.24 5.45 15.96 5.73 15.96 6.08L15.96 6.94C15.96 7.29 16.24 7.57 16.59 7.57Z" fill="#000000" fill-opacity="1.000000" fill-rule="nonzero"/>
		<path id="path" d="M14.06 18.01C14.41 18.01 14.69 17.72 14.69 17.37L14.69 6.08C14.69 5.73 14.41 5.45 14.06 5.45C13.71 5.45 13.43 5.73 13.43 6.08L13.43 17.37C13.43 17.72 13.71 18.01 14.06 18.01Z" fill="#000000" fill-opacity="1.000000" fill-rule="nonzero"/>
		<path id="path" d="M13.43 20.06C13.43 20.41 13.71 20.69 14.06 20.69C14.41 20.69 14.69 20.41 14.69 20.06L14.69 19.2C14.69 18.85 14.41 18.57 14.06 18.57C13.71 18.57 13.43 18.85 13.43 19.2L13.43 20.06Z" fill="#000000" fill-opacity="1.000000" fill-rule="nonzero"/>
		<path id="path" d="M19.12 18.01C19.47 18.01 19.75 17.72 19.75 17.37L19.75 6.08C19.75 5.73 19.47 5.45 19.12 5.45C18.77 5.45 18.49 5.73 18.49 6.08L18.49 17.37C18.49 17.72 18.77 18.01 19.12 18.01Z" fill="#000000" fill-opacity="1.000000" fill-rule="nonzero"/>
		<path id="path" d="M18.49 20.06C18.49 20.41 18.77 20.69 19.12 20.69C19.47 20.69 19.75 20.41 19.75 20.06L19.75 19.2C19.75 18.85 19.47 18.57 19.12 18.57C18.77 18.57 18.49 18.85 18.49 19.2L18.49 20.06Z" fill="#000000" fill-opacity="1.000000" fill-rule="nonzero"/>
		<path id="path" d="M29.05 11.14C28.02 11.14 27.18 11.97 27.18 13C27.18 14.03 28.02 14.87 29.05 14.87C30.08 14.87 30.92 14.03 30.92 13C30.92 11.97 30.08 11.14 29.05 11.14ZM29.05 13.61C28.72 13.61 28.45 13.34 28.45 13C28.45 12.67 28.72 12.4 29.05 12.4C29.38 12.4 29.65 12.67 29.65 13C29.65 13.34 29.38 13.61 29.05 13.61Z" fill="#000000" fill-opacity="1.000000" fill-rule="nonzero"/>
	</g>
</svg>
