<svg width="40.000000" height="40.000000" viewBox="0 0 40 40" fill="none" xmlns="http://www.w3.org/2000/svg" xmlns:xlink="http://www.w3.org/1999/xlink">
	<desc>
			Created with Pixso.
	</desc>
	<defs>
		<clipPath id="clip7_426">
			<rect id="power_supply_922f0yj1924e" width="40.000000" height="40.000000" fill="white" fill-opacity="0"/>
		</clipPath>
	</defs>
	<g clip-path="url(#clip7_426)">
		<path id="path" d="M39.37 0.78L0.62 0.78C0.27 0.78 0 1.06 0 1.41L0 26.26C0 26.61 0.27 26.89 0.62 26.89L5.62 26.89C5.57 27.21 5.55 27.53 5.55 27.86C5.55 31.61 8.6 34.65 12.34 34.65L27.87 34.65L27.87 36.16C27.87 36.25 27.89 36.34 27.93 36.42C28.38 37.4 29.93 37.91 30.99 37.91C31 37.91 31.01 37.91 31.02 37.91C31.45 38.31 32 38.56 32.59 38.63C32.61 38.63 32.64 38.64 32.66 38.64L34.84 38.64C35.04 38.98 35.41 39.21 35.86 39.21C36.52 39.21 37.02 38.71 37.02 38.04L37.02 37.98L39.37 37.98C39.72 37.98 40 37.7 40 37.36C40 37.01 39.72 36.73 39.37 36.73L37.02 36.73L37.02 31.72L39.37 31.72C39.72 31.72 40 31.44 40 31.1C40 30.75 39.72 30.47 39.37 30.47L37.02 30.47L37.02 30.41C37.02 30.07 36.88 29.77 36.64 29.55C36.43 29.37 36.16 29.26 35.87 29.26C35.42 29.26 35.05 29.48 34.85 29.82L32.66 29.82C32.64 29.82 32.61 29.82 32.59 29.83C32 29.89 31.45 30.15 31.02 30.55C29.96 30.54 28.38 31.05 27.93 32.04C27.89 32.12 27.87 32.21 27.87 32.3L27.87 33.4L12.34 33.4C9.28 33.4 6.8 30.92 6.8 27.86C6.8 27.53 6.83 27.21 6.88 26.89L39.37 26.89C39.72 26.89 40 26.61 40 26.26L40 1.41C40 1.06 39.72 0.78 39.37 0.78ZM29.12 32.47C29.43 32.08 30.52 31.72 31.18 31.81C31.39 31.84 31.6 31.76 31.74 31.6C31.99 31.31 32.33 31.12 32.7 31.07L35.3 31.07C35.49 31.07 35.65 30.99 35.77 30.86L35.77 37.59C35.65 37.46 35.49 37.39 35.3 37.39L32.7 37.39C32.33 37.33 31.99 37.15 31.74 36.86C31.6 36.7 31.39 36.62 31.18 36.65C30.52 36.74 29.43 36.38 29.12 35.99L29.12 32.47ZM38.75 25.64L7.26 25.64C7.58 24.93 8.04 24.28 8.64 23.75L16.15 23.75C16.5 23.75 16.78 23.47 16.78 23.12L16.78 20.26C16.78 19.92 16.5 19.64 16.15 19.64L8.53 19.64C8.18 19.64 7.9 19.92 7.9 20.26L7.9 22.73C6.98 23.52 6.31 24.52 5.92 25.64L1.25 25.64L1.25 2.03L38.75 2.03L38.75 25.64ZM12.34 21.07C11.21 21.07 10.13 21.34 9.15 21.86L9.15 20.89L15.53 20.89L15.53 22.5L10.94 22.5C11.39 22.38 11.86 22.32 12.34 22.32C12.69 22.32 12.97 22.04 12.97 21.69C12.97 21.35 12.69 21.07 12.34 21.07ZM27.96 21.96C32.44 21.96 36.09 18.31 36.09 13.83C36.09 9.35 32.44 5.71 27.96 5.71C23.48 5.71 19.84 9.35 19.84 13.83C19.84 18.31 23.48 21.96 27.96 21.96ZM22.68 9.44L23.68 10.44C23.06 11.22 22.65 12.17 22.53 13.21L21.12 13.21C21.25 11.78 21.81 10.48 22.68 9.44ZM34.81 13.21L33.4 13.21C33.28 12.17 32.86 11.22 32.24 10.44L33.24 9.44C34.11 10.48 34.68 11.78 34.81 13.21ZM33.24 18.23L32.24 17.23C32.86 16.45 33.28 15.5 33.4 14.46L34.81 14.46C34.68 15.89 34.11 17.19 33.24 18.23ZM27.96 12.27C28.83 12.27 29.53 12.97 29.53 13.83C29.53 14.7 28.83 15.4 27.96 15.4C27.1 15.4 26.4 14.7 26.4 13.83C26.4 12.97 27.1 12.27 27.96 12.27ZM26.47 16.21C26.73 16.38 27.03 16.51 27.34 16.58L27.34 18.01C26.64 17.9 26 17.63 25.46 17.23L26.47 16.21ZM28.59 16.58C28.9 16.51 29.2 16.38 29.46 16.21L30.47 17.23C29.93 17.63 29.29 17.9 28.59 18.01L28.59 16.58ZM30.34 15.33C30.51 15.07 30.63 14.77 30.71 14.46L32.14 14.46C32.03 15.16 31.76 15.8 31.35 16.34L30.34 15.33ZM30.71 13.21C30.63 12.9 30.51 12.6 30.34 12.34L31.35 11.33C31.76 11.87 32.03 12.51 32.14 13.21L30.71 13.21ZM29.46 11.45C29.2 11.29 28.9 11.16 28.59 11.09L28.59 9.66C29.29 9.77 29.93 10.04 30.47 10.44L29.46 11.45ZM27.34 11.09C27.03 11.16 26.73 11.29 26.47 11.45L25.46 10.44C26 10.04 26.64 9.77 27.34 9.66L27.34 11.09ZM25.58 12.34C25.42 12.6 25.29 12.9 25.22 13.21L23.79 13.21C23.9 12.51 24.17 11.87 24.57 11.33L25.58 12.34ZM25.22 14.46C25.29 14.77 25.42 15.07 25.58 15.33L24.57 16.34C24.17 15.8 23.9 15.16 23.79 14.46L25.22 14.46ZM24.57 18.12C25.35 18.74 26.3 19.15 27.34 19.27L27.34 20.68C25.91 20.55 24.61 19.98 23.57 19.12L24.57 18.12ZM28.59 19.27C29.63 19.15 30.58 18.74 31.36 18.12L32.36 19.12C31.32 19.98 30.02 20.55 28.59 20.68L28.59 19.27ZM31.36 9.55C30.58 8.93 29.63 8.52 28.59 8.4L28.59 6.99C30.02 7.12 31.32 7.68 32.36 8.55L31.36 9.55ZM27.34 8.4C26.3 8.52 25.35 8.93 24.57 9.55L23.57 8.55C24.61 7.68 25.91 7.12 27.34 6.99L27.34 8.4ZM22.53 14.46C22.65 15.5 23.06 16.45 23.68 17.23L22.68 18.23C21.81 17.19 21.25 15.89 21.12 14.46L22.53 14.46ZM4.17 6.95C5.27 6.95 6.17 6.06 6.17 4.96C6.17 3.86 5.27 2.97 4.17 2.97C3.08 2.97 2.18 3.86 2.18 4.96C2.18 6.06 3.08 6.95 4.17 6.95ZM4.17 4.22C4.58 4.22 4.92 4.55 4.92 4.96C4.92 5.37 4.58 5.7 4.17 5.7C3.77 5.7 3.43 5.37 3.43 4.96C3.43 4.55 3.77 4.22 4.17 4.22ZM35.82 6.95C36.91 6.95 37.81 6.06 37.81 4.96C37.81 3.86 36.91 2.97 35.82 2.97C34.72 2.97 33.82 3.86 33.82 4.96C33.82 6.06 34.72 6.95 35.82 6.95ZM35.82 4.22C36.22 4.22 36.56 4.55 36.56 4.96C36.56 5.37 36.22 5.7 35.82 5.7C35.41 5.7 35.07 5.37 35.07 4.96C35.07 4.55 35.41 4.22 35.82 4.22ZM4.17 24.7C5.27 24.7 6.17 23.81 6.17 22.71C6.17 21.61 5.27 20.72 4.17 20.72C3.08 20.72 2.18 21.61 2.18 22.71C2.18 23.81 3.08 24.7 4.17 24.7ZM4.17 21.97C4.58 21.97 4.92 22.3 4.92 22.71C4.92 23.12 4.58 23.45 4.17 23.45C3.77 23.45 3.43 23.12 3.43 22.71C3.43 22.3 3.77 21.97 4.17 21.97ZM35.82 20.72C34.72 20.72 33.82 21.61 33.82 22.71C33.82 23.81 34.72 24.7 35.82 24.7C36.91 24.7 37.81 23.81 37.81 22.71C37.81 21.61 36.91 20.72 35.82 20.72ZM35.82 23.45C35.41 23.45 35.07 23.12 35.07 22.71C35.07 22.3 35.41 21.97 35.82 21.97C36.22 21.97 36.56 22.3 36.56 22.71C36.56 23.12 36.22 23.45 35.82 23.45ZM7.23 14.43L16.15 14.43C16.5 14.43 16.78 14.15 16.78 13.81L16.78 8.08C16.78 7.74 16.5 7.46 16.15 7.46L7.23 7.46C6.89 7.46 6.61 7.74 6.61 8.08L6.61 13.81C6.61 14.15 6.89 14.43 7.23 14.43ZM7.86 8.71L15.53 8.71L15.53 13.18L7.86 13.18L7.86 8.71Z"   fill-opacity="1.000000" fill-rule="nonzero"/>
	</g>
</svg>
