<svg width="40.000000" height="40.000000" viewBox="0 0 40 40" fill="none" xmlns="http://www.w3.org/2000/svg" xmlns:xlink="http://www.w3.org/1999/xlink">
	<desc>
			Created with Pixso.
	</desc>
	<defs>
		<clipPath id="clip2_453">
			<rect id="ssd-round-svgrepo-com" width="40.000000" height="40.000000" fill="white" fill-opacity="0"/>
		</clipPath>
	</defs>
	<g clip-path="url(#clip2_453)">
		<path id="path" d="M9.27 4.78C10.24 4.02 11.37 3.75 12.5 3.75L27.5 3.75C28.62 3.75 29.75 4.02 30.72 4.78C31.69 5.53 32.39 6.67 32.85 8.15L37.1 25.35C37.62 26.39 37.91 27.57 37.91 28.82C37.91 32.85 34.81 36.25 30.83 36.25L9.16 36.25C5.18 36.25 2.08 32.85 2.08 28.82C2.08 27.57 2.37 26.39 2.89 25.35L7.12 8.19C7.59 6.7 8.3 5.53 9.27 4.78ZM6.29 22.03C7.16 21.62 8.13 21.39 9.16 21.39L30.83 21.39C31.86 21.39 32.83 21.62 33.7 22.03L30.46 8.86C30.09 7.72 29.63 7.1 29.19 6.75C28.75 6.41 28.21 6.25 27.5 6.25L12.5 6.25C11.78 6.25 11.24 6.41 10.8 6.75C10.36 7.1 9.9 7.72 9.53 8.86L6.29 22.03ZM9.16 23.89C7.48 23.89 5.98 24.87 5.18 26.38C4.8 27.1 4.58 27.93 4.58 28.82C4.58 31.61 6.7 33.75 9.16 33.75L30.83 33.75C33.29 33.75 35.41 31.61 35.41 28.82C35.41 27.93 35.19 27.1 34.81 26.38C34.01 24.87 32.51 23.89 30.83 23.89L9.16 23.89ZM17.5 27.08C18.19 27.08 18.75 27.64 18.75 28.33L18.75 30C18.75 30.69 18.19 31.25 17.5 31.25C16.8 31.25 16.25 30.69 16.25 30L16.25 28.33C16.25 27.64 16.8 27.08 17.5 27.08ZM21.66 27.08C22.35 27.08 22.91 27.64 22.91 28.33L22.91 30C22.91 30.69 22.35 31.25 21.66 31.25C20.97 31.25 20.41 30.69 20.41 30L20.41 28.33C20.41 27.64 20.97 27.08 21.66 27.08ZM25.83 27.08C26.52 27.08 27.08 27.64 27.08 28.33L27.08 30C27.08 30.69 26.52 31.25 25.83 31.25C25.14 31.25 24.58 30.69 24.58 30L24.58 28.33C24.58 27.64 25.14 27.08 25.83 27.08ZM30 27.08C30.69 27.08 31.25 27.64 31.25 28.33L31.25 30C31.25 30.69 30.69 31.25 30 31.25C29.3 31.25 28.75 30.69 28.75 30L28.75 28.33C28.75 27.64 29.3 27.08 30 27.08Z" fill-opacity="1.000000" fill-rule="evenodd"/>
	</g>
</svg>
