<svg width="40.000000" height="28.000000" viewBox="0 0 40 28" fill="#fff" xmlns="http://www.w3.org/2000/svg">
	<desc>
			Created with Pixso.
	</desc>
	<defs>
		<clipPath id="clip2_188">
			<rect id="video-card-svgrepo-com" width="40.000000" height="28.000000" fill="white" fill-opacity="0"/>
		</clipPath>
	</defs>
	<g clip-path="url(#clip2_188)">
		<path id="path" d="M37.5 7L3.75 7C3.75 5.79 2.34 4.81 0.62 4.81C0.27 4.81 0 5 0 5.25C0 5.49 0.27 5.68 0.62 5.68C1.65 5.68 2.5 6.27 2.5 7L2.5 22.75C2.5 22.99 2.77 23.18 3.12 23.18C3.47 23.18 3.75 22.99 3.75 22.75L3.75 22.31L5 22.31C6.03 22.31 6.87 21.72 6.87 21L37.5 21C38.87 21 40 20.21 40 19.25L40 8.74C40 7.78 38.87 7 37.5 7ZM38.75 19.25C38.75 19.73 38.18 20.12 37.5 20.12L6.25 20.12C5.9 20.12 5.62 20.32 5.62 20.56L5.62 21C5.62 21.24 5.34 21.43 5 21.43L3.75 21.43L3.75 7.87L37.5 7.87C38.18 7.87 38.75 8.26 38.75 8.74L38.75 19.25Z"  fill-opacity="1.000000" fill-rule="nonzero"/>
		<path id="path" d="M18.75 10.5C16.95 10.5 15.38 11.16 14.5 12.15C14.44 12.2 14.39 12.25 14.36 12.31C13.97 12.81 13.75 13.39 13.75 14C13.75 14.62 13.98 15.2 14.39 15.71C14.41 15.73 14.42 15.75 14.44 15.77C15.31 16.8 16.92 17.5 18.75 17.5C21.5 17.5 23.75 15.92 23.75 14C23.75 13.37 23.51 12.79 23.1 12.28C23.08 12.26 23.07 12.24 23.05 12.22C22.18 11.19 20.57 10.5 18.75 10.5ZM15 14C15 13.75 15.04 13.52 15.13 13.3C15.41 13.47 15.79 13.67 16.3 13.88C16.8 14.08 17.22 14.21 17.57 14.29C17.37 14.41 17.1 14.53 16.77 14.67C16.11 14.93 15.62 15.05 15.34 15.09C15.12 14.76 15 14.39 15 14ZM22.5 14C22.5 14.22 22.45 14.44 22.38 14.65C22.1 14.47 21.71 14.27 21.19 14.06C20.72 13.87 20.32 13.74 19.99 13.66C20.18 13.56 20.42 13.44 20.72 13.32C21.38 13.06 21.88 12.94 22.15 12.9C22.37 13.23 22.5 13.6 22.5 14ZM21.4 12.14C21.04 12.22 20.61 12.36 20.09 12.57C19.6 12.76 19.24 12.95 18.96 13.12C18.93 12.94 18.9 12.72 18.9 12.46C18.9 11.93 19 11.57 19.09 11.38C19.99 11.44 20.8 11.72 21.4 12.14ZM17.78 11.46C17.7 11.72 17.65 12.05 17.65 12.46C17.65 12.85 17.69 13.16 17.76 13.41C17.52 13.34 17.25 13.25 16.93 13.12C16.28 12.86 15.89 12.62 15.7 12.47C16.2 11.98 16.93 11.62 17.78 11.46ZM16.09 15.85C16.45 15.77 16.88 15.63 17.4 15.42C17.89 15.23 18.25 15.04 18.53 14.87C18.56 15.05 18.59 15.27 18.59 15.53C18.59 16.06 18.49 16.42 18.4 16.61C17.5 16.55 16.69 16.27 16.09 15.85ZM19.71 16.53C19.79 16.27 19.84 15.94 19.84 15.53C19.84 15.11 19.79 14.78 19.71 14.52C19.95 14.59 20.24 14.69 20.56 14.82C21.25 15.09 21.65 15.34 21.82 15.49C21.32 15.99 20.58 16.37 19.71 16.53Z"  fill-opacity="1.000000" fill-rule="nonzero"/>
		<path id="path" d="M34.37 9.18C34.02 9.18 33.75 9.38 33.75 9.62C33.75 9.86 34.02 10.06 34.37 10.06C35.06 10.06 35.62 10.45 35.62 10.93L35.62 17.06C35.62 17.54 35.06 17.93 34.37 17.93L18.75 17.93C15.64 17.93 13.12 16.17 13.12 14C13.12 11.82 15.64 10.06 18.75 10.06L31.87 10.06C32.22 10.06 32.5 9.86 32.5 9.62C32.5 9.38 32.22 9.18 31.87 9.18L18.75 9.18C14.95 9.18 11.87 11.34 11.87 14C11.87 16.65 14.95 18.81 18.75 18.81L34.37 18.81C35.75 18.81 36.87 18.02 36.87 17.06L36.87 10.93C36.87 9.97 35.75 9.18 34.37 9.18Z" fill-opacity="1.000000" fill-rule="nonzero"/>
		<path id="path" d="M8.75 12.68L6.87 12.68C6.18 12.68 5.62 13.08 5.62 13.56L5.62 14.43C5.62 14.91 6.18 15.31 6.87 15.31L8.75 15.31C9.43 15.31 10 14.91 10 14.43L10 13.56C10 13.08 9.43 12.68 8.75 12.68ZM6.87 14.43L6.87 13.56L8.75 13.56L8.75 14.43L6.87 14.43Z"  fill-opacity="1.000000" fill-rule="nonzero"/>
		<path id="path" d="M8.75 9.62L6.87 9.62C6.18 9.62 5.62 10.01 5.62 10.5L5.62 11.37C5.62 11.85 6.18 12.25 6.87 12.25L8.75 12.25C9.43 12.25 10 11.85 10 11.37L10 10.5C10 10.01 9.43 9.62 8.75 9.62ZM6.87 11.37L6.87 10.5L8.75 10.5L8.75 11.37L6.87 11.37Z"  fill-opacity="1.000000" fill-rule="nonzero"/>
		<path id="path" d="M8.75 15.75L6.87 15.75C6.18 15.75 5.62 16.14 5.62 16.62L5.62 17.5C5.62 17.98 6.18 18.37 6.87 18.37L8.75 18.37C9.43 18.37 10 17.98 10 17.5L10 16.62C10 16.14 9.43 15.75 8.75 15.75ZM6.87 17.5L6.87 16.62L8.75 16.62L8.75 17.5L6.87 17.5Z"  fill-opacity="1.000000" fill-rule="nonzero"/>
		<path id="path" d="M33.75 10.93L31.87 10.93C31.52 10.93 31.25 11.13 31.25 11.37C31.25 11.61 31.52 11.81 31.87 11.81L33.75 11.81C34.09 11.81 34.37 11.61 34.37 11.37C34.37 11.13 34.09 10.93 33.75 10.93Z"  fill-opacity="1.000000" fill-rule="nonzero"/>
		<path id="path" d="M33.75 16.18L31.87 16.18C31.52 16.18 31.25 16.38 31.25 16.62C31.25 16.86 31.52 17.06 31.87 17.06L33.75 17.06C34.09 17.06 34.37 16.86 34.37 16.62C34.37 16.38 34.09 16.18 33.75 16.18Z"  fill-opacity="1.000000" fill-rule="nonzero"/>
		<path id="path" d="M33.75 12.25L31.87 12.25C31.52 12.25 31.25 12.44 31.25 12.68C31.25 12.92 31.52 13.12 31.87 13.12L33.75 13.12C34.09 13.12 34.37 12.92 34.37 12.68C34.37 12.44 34.09 12.25 33.75 12.25Z"  fill-opacity="1.000000" fill-rule="nonzero"/>
		<path id="path" d="M33.75 13.56L31.87 13.56C31.52 13.56 31.25 13.75 31.25 14C31.25 14.24 31.52 14.43 31.87 14.43L33.75 14.43C34.09 14.43 34.37 14.24 34.37 14C34.37 13.75 34.09 13.56 33.75 13.56Z"  fill-opacity="1.000000" fill-rule="nonzero"/>
		<path id="path" d="M33.75 14.87L31.87 14.87C31.52 14.87 31.25 15.07 31.25 15.31C31.25 15.55 31.52 15.75 31.87 15.75L33.75 15.75C34.09 15.75 34.37 15.55 34.37 15.31C34.37 15.07 34.09 14.87 33.75 14.87Z"  fill-opacity="1.000000" fill-rule="nonzero"/>
	</g>
</svg>
