<svg width="40.000000" height="40.000000" viewBox="0 0 40 40" fill="none" xmlns="http://www.w3.org/2000/svg">
	<desc>
			Created with Pixso.
	</desc>
	<defs>
		<clipPath id="clip2_417">
			<rect id="memory-4-svgrepo-com" width="40.000000" height="40.000000" fill="white" fill-opacity="0"/>
		</clipPath>
	</defs>
	<g clip-path="url(#clip2_417)">
		<path id="path" d="M12.92 22.34C13.04 22.21 13.04 22 12.92 21.87L12.83 21.79C12.7 21.66 12.49 21.66 12.37 21.79L11.72 22.43L12.27 22.98L12.92 22.34Z"   fill-opacity="1.000000" fill-rule="nonzero"/>
		<path id="path" d="M13.37 24.08L14.02 23.44C14.15 23.31 14.15 23.1 14.02 22.97L13.93 22.89C13.8 22.76 13.6 22.76 13.47 22.89L12.82 23.53L13.37 24.08Z"   fill-opacity="1.000000" fill-rule="nonzero"/>
		<path id="path" d="M15.12 24.08L15.03 23.99C14.91 23.86 14.7 23.86 14.57 23.99L13.92 24.63L14.48 25.18L15.12 24.54C15.25 24.41 15.25 24.2 15.12 24.08Z"   fill-opacity="1.000000" fill-rule="nonzero"/>
		<path id="path" d="M16.22 25.64C16.35 25.51 16.35 25.31 16.22 25.18L16.13 25.09C16.01 24.96 15.8 24.96 15.67 25.09L15.03 25.74L15.58 26.29L16.22 25.64Z"   fill-opacity="1.000000" fill-rule="nonzero"/>
		<path id="path" d="M7.5 26.66L6.85 27.3C6.73 27.43 6.73 27.64 6.85 27.76L6.94 27.85C7.07 27.98 7.28 27.98 7.41 27.85L8.05 27.21L7.5 26.66Z"   fill-opacity="1.000000" fill-rule="nonzero"/>
		<path id="path" d="M8.6 27.76L7.96 28.4C7.83 28.53 7.83 28.74 7.96 28.87L8.04 28.95C8.17 29.08 8.38 29.08 8.51 28.95L9.15 28.31L8.6 27.76Z"   fill-opacity="1.000000" fill-rule="nonzero"/>
		<path id="path" d="M9.7 28.86L9.06 29.5C8.93 29.63 8.93 29.84 9.06 29.97L9.14 30.05C9.27 30.18 9.48 30.18 9.61 30.05L10.25 29.41L9.7 28.86Z"   fill-opacity="1.000000" fill-rule="nonzero"/>
		<path id="path" d="M10.8 29.96L10.16 30.6C10.03 30.73 10.03 30.94 10.16 31.07L10.24 31.15C10.37 31.28 10.58 31.28 10.71 31.15L11.35 30.51L10.8 29.96Z"   fill-opacity="1.000000" fill-rule="nonzero"/>
		<path id="path" d="M17.23 26.19C17.11 26.06 16.9 26.06 16.77 26.19L16.13 26.84L16.68 27.39L17.32 26.74C17.45 26.61 17.45 26.41 17.32 26.28L17.23 26.19Z"   fill-opacity="1.000000" fill-rule="nonzero"/>
		<rect id="rect" x="13.627441" y="32.097778" width="9.342645" height="5.001201" transform="rotate(-135 13.627441 32.097778)"   fill-opacity="1.000000"/>
		<path id="path" d="M11.26 31.7C11.13 31.83 11.13 32.04 11.26 32.17L11.34 32.25C11.47 32.38 11.68 32.38 11.81 32.25L12.45 31.61L11.9 31.06L11.26 31.7Z"   fill-opacity="1.000000" fill-rule="nonzero"/>
		<path id="path" d="M20.38 14.87C20.51 14.74 20.51 14.54 20.38 14.41L20.3 14.32C20.17 14.19 19.96 14.19 19.83 14.32L19.19 14.97L19.74 15.52L20.38 14.87Z"   fill-opacity="1.000000" fill-rule="nonzero"/>
		<path id="path" d="M20.84 16.62L21.48 15.97C21.61 15.84 21.61 15.64 21.48 15.51L21.4 15.42C21.27 15.29 21.06 15.29 20.93 15.42L20.29 16.07L20.84 16.62Z"   fill-opacity="1.000000" fill-rule="nonzero"/>
		<path id="path" d="M22.59 16.61L22.5 16.52C22.37 16.39 22.16 16.39 22.03 16.52L21.39 17.17L21.94 17.72L22.59 17.07C22.71 16.95 22.71 16.74 22.59 16.61Z"   fill-opacity="1.000000" fill-rule="nonzero"/>
		<path id="path" d="M23.69 18.17C23.81 18.05 23.81 17.84 23.69 17.71L23.6 17.62C23.47 17.5 23.26 17.5 23.14 17.62L22.49 18.27L23.04 18.82L23.69 18.17Z"   fill-opacity="1.000000" fill-rule="nonzero"/>
		<path id="path" d="M14.41 20.38C14.54 20.51 14.74 20.51 14.87 20.38L15.52 19.74L14.96 19.19L14.32 19.83C14.19 19.96 14.19 20.17 14.32 20.3L14.41 20.38Z"   fill-opacity="1.000000" fill-rule="nonzero"/>
		<path id="path" d="M15.42 20.93C15.29 21.06 15.29 21.27 15.42 21.4L15.51 21.48C15.64 21.61 15.84 21.61 15.97 21.48L16.62 20.84L16.07 20.29L15.42 20.93Z"   fill-opacity="1.000000" fill-rule="nonzero"/>
		<path id="path" d="M16.52 22.5L16.61 22.59C16.74 22.71 16.95 22.71 17.07 22.59L17.72 21.94L17.17 21.39L16.52 22.03C16.4 22.16 16.4 22.37 16.52 22.5Z"   fill-opacity="1.000000" fill-rule="nonzero"/>
		<path id="path" d="M18.27 22.49L17.62 23.14C17.5 23.26 17.5 23.47 17.62 23.6L17.71 23.69C17.84 23.81 18.05 23.81 18.17 23.69L18.82 23.04L18.27 22.49Z"   fill-opacity="1.000000" fill-rule="nonzero"/>
		<path id="path" d="M24.7 18.73C24.57 18.6 24.36 18.6 24.24 18.73L23.59 19.37L24.14 19.92L24.79 19.28C24.92 19.15 24.92 18.94 24.79 18.81L24.7 18.73Z"   fill-opacity="1.000000" fill-rule="nonzero"/>
		<path id="polygon" d="M14.48 18.02L21.09 24.63L24.63 21.09L18.02 14.48L14.48 18.02Z"   fill-opacity="1.000000" fill-rule="nonzero"/>
		<path id="path" d="M18.73 24.24C18.6 24.37 18.6 24.57 18.73 24.7L18.81 24.79C18.94 24.92 19.15 24.92 19.28 24.79L19.92 24.14L19.37 23.59L18.73 24.24Z"   fill-opacity="1.000000" fill-rule="nonzero"/>
		<path id="path" d="M27.85 7.41C27.98 7.28 27.98 7.07 27.85 6.94L27.76 6.85C27.64 6.73 27.43 6.73 27.3 6.85L26.66 7.5L27.21 8.05L27.85 7.41Z"   fill-opacity="1.000000" fill-rule="nonzero"/>
		<path id="path" d="M28.31 9.15L28.95 8.51C29.08 8.38 29.08 8.17 28.95 8.04L28.87 7.96C28.74 7.83 28.53 7.83 28.4 7.96L27.76 8.6L28.31 9.15Z"   fill-opacity="1.000000" fill-rule="nonzero"/>
		<path id="path" d="M29.41 10.25L30.05 9.61C30.18 9.48 30.18 9.27 30.05 9.14L29.97 9.06C29.84 8.93 29.63 8.93 29.5 9.06L28.86 9.7L29.41 10.25Z"   fill-opacity="1.000000" fill-rule="nonzero"/>
		<path id="path" d="M30.51 11.35L31.15 10.71C31.28 10.58 31.28 10.37 31.15 10.24L31.07 10.16C30.94 10.03 30.73 10.03 30.6 10.16L29.96 10.8L30.51 11.35Z"   fill-opacity="1.000000" fill-rule="nonzero"/>
		<path id="path" d="M21.87 12.92C22 13.05 22.21 13.05 22.34 12.92L22.98 12.27L22.43 11.72L21.79 12.37C21.66 12.49 21.66 12.7 21.79 12.83L21.87 12.92Z"   fill-opacity="1.000000" fill-rule="nonzero"/>
		<path id="path" d="M23.53 12.82L22.89 13.47C22.76 13.6 22.76 13.8 22.89 13.93L22.97 14.02C23.1 14.15 23.31 14.15 23.44 14.02L24.08 13.37L23.53 12.82Z"   fill-opacity="1.000000" fill-rule="nonzero"/>
		<path id="path" d="M24.63 13.92L23.99 14.57C23.86 14.7 23.86 14.9 23.99 15.03L24.08 15.12C24.2 15.25 24.41 15.25 24.54 15.12L25.18 14.48L24.63 13.92Z"   fill-opacity="1.000000" fill-rule="nonzero"/>
		<path id="path" d="M25.73 15.03L25.09 15.67C24.96 15.8 24.96 16.01 25.09 16.13L25.18 16.22C25.3 16.35 25.51 16.35 25.64 16.22L26.28 15.58L25.73 15.03Z"   fill-opacity="1.000000" fill-rule="nonzero"/>
		<path id="path" d="M32.17 11.26C32.04 11.13 31.83 11.13 31.7 11.26L31.06 11.9L31.61 12.45L32.25 11.81C32.38 11.68 32.38 11.47 32.25 11.34L32.17 11.26Z"   fill-opacity="1.000000" fill-rule="nonzero"/>
		<rect id="rect" x="28.561035" y="17.164551" width="9.342645" height="5.001201" transform="rotate(-135 28.561035 17.164551)"   fill-opacity="1.000000"/>
		<path id="path" d="M26.19 16.77C26.06 16.9 26.06 17.11 26.19 17.23L26.28 17.32C26.41 17.45 26.61 17.45 26.74 17.32L27.39 16.68L26.84 16.13L26.19 16.77Z"   fill-opacity="1.000000" fill-rule="nonzero"/>
		<path id="path" d="M36.89 9.16C36.26 9.79 35.24 9.79 34.6 9.16C33.97 8.53 33.97 7.5 34.6 6.87L32.47 4.74C31.84 5.37 30.81 5.37 30.18 4.74C29.55 4.1 29.55 3.08 30.18 2.44L27.73 0L0 27.73L2.44 30.18C3.08 29.54 4.1 29.54 4.74 30.18C5.37 30.81 5.37 31.84 4.74 32.47L6.87 34.6C7.5 33.97 8.53 33.97 9.16 34.6C9.79 35.24 9.79 36.26 9.16 36.89L12.26 39.99L40 12.26L36.89 9.16ZM36.68 14.39L35.61 15.46L34.45 14.29L33.75 14.99L34.91 16.16L33.84 17.23L32.68 16.06L31.98 16.76L33.14 17.93L32.08 18.99L30.91 17.83L30.21 18.53L31.38 19.7L30.31 20.76L29.14 19.6L28.44 20.3L29.61 21.46L28.54 22.53L27.38 21.37L26.67 22.07L27.84 23.23L26.77 24.3L25.61 23.14L24.91 23.84L26.07 25L25 26.07L23.84 24.91L23.14 25.61L24.3 26.77L23.23 27.84L22.07 26.67L21.37 27.37L22.53 28.54L21.46 29.61L20.3 28.44L19.6 29.14L20.76 30.31L19.69 31.38L18.53 30.21L17.83 30.91L19 32.08L17.93 33.14L16.76 31.98L16.06 32.68L17.23 33.85L16.16 34.91L14.99 33.75L14.29 34.45L15.46 35.61L14.39 36.68L13.22 35.52L12.52 36.22L13.69 37.38L12.26 38.81L10.24 36.79C10.67 35.88 10.5 34.76 9.75 34.01C9 33.26 7.88 33.1 6.97 33.52L5.82 32.37C6.24 31.45 6.08 30.34 5.33 29.58C4.58 28.83 3.46 28.67 2.55 29.1L1.18 27.73L27.73 1.18L29.1 2.55C28.67 3.46 28.83 4.58 29.59 5.33C30.33 6.08 31.45 6.24 32.37 5.82L33.52 6.97C33.1 7.88 33.26 9 34.01 9.75C34.76 10.5 35.88 10.67 36.79 10.24L38.81 12.26L37.38 13.69L36.22 12.52L35.52 13.23L36.68 14.39Z"   fill-opacity="1.000000" fill-rule="nonzero"/>
	</g>
</svg>
